<?xml version="1.0" ?>
<!DOCTYPE svg  PUBLIC '-//W3C//DTD SVG 1.1//EN'  'http://www.w3.org/Graphics/SVG/1.1/DTD/svg11.dtd'>

<svg width="182" height="26" viewBox="0 0 182 26" fill="#000000" xmlns="http://www.w3.org/2000/svg">
    <path fill-rule="evenodd" clip-rule="evenodd" d="M27.8028 25.1808V12.0052C27.8028 8.26766 25.776 6.4933 22.3724 6.4933C19.5423 6.4933 17.0949 8.15448 16.0239 9.81545C15.3355 7.73909 13.6146 6.4933 10.8994 6.4933C8.0693 6.4933 5.62191 8.22988 4.8569 9.32466V6.94649H0V25.1808H4.8569V12.9114C5.58362 11.892 6.99857 10.7594 8.68115 10.7594C10.6699 10.7594 11.4347 11.9674 11.4347 13.6664V25.1808H16.3299V12.8736C17.0183 11.892 18.4332 10.7594 20.1541 10.7594C22.1428 10.7594 22.9076 11.9674 22.9076 13.6664L22.9078 25.1808H27.8028ZM41.1498 25.6338C35.0692 25.6338 31.3977 21.2545 31.3977 16.0448C31.3977 10.8726 35.069 6.49349 41.1498 6.49349C47.2687 6.49349 50.9402 10.8728 50.9402 16.0448C50.9402 21.2545 47.2689 25.6338 41.1498 25.6338ZM41.1498 21.3679C44.171 21.3679 45.892 18.9139 45.892 16.0448C45.892 13.2134 44.1712 10.7594 41.1498 10.7594C38.1284 10.7594 36.4459 13.2134 36.4459 16.0448C36.4459 18.9139 38.1287 21.3679 41.1498 21.3679ZM71.8593 25.1808V12.3072C71.8593 8.75847 69.9089 6.4933 65.8551 6.4933C62.8339 6.4933 60.5776 7.92788 59.392 9.32466V6.94649H54.5349V25.1808H59.392V12.9114C60.1951 11.8166 61.6866 10.7594 63.5987 10.7594C65.6638 10.7594 67.0024 11.6278 67.0024 14.1572V25.1808H71.8593ZM85.2444 25.6338C79.1638 25.6338 75.4923 21.2545 75.4923 16.0448C75.4923 10.8726 79.1636 6.49349 85.2444 6.49349C91.3633 6.49349 95.0347 10.8728 95.0347 16.0448C95.0347 21.2545 91.3634 25.6338 85.2444 25.6338ZM85.2444 21.3679C88.2655 21.3679 89.9866 18.9139 89.9866 16.0448C89.9866 13.2134 88.2657 10.7594 85.2444 10.7594C82.223 10.7594 80.5404 13.2134 80.5404 16.0448C80.5404 18.9139 82.2232 21.3679 85.2444 21.3679ZM103.486 19.3291C104.289 20.4995 106.087 21.3677 107.655 21.3677C110.485 21.3677 112.359 19.2535 112.359 16.0823C112.359 12.9112 110.485 10.7592 107.655 10.7592C106.087 10.7592 104.289 11.6652 103.486 12.8734V19.3291ZM103.486 25.1808H98.6295V0H103.486V9.28704C104.94 7.43727 107.005 6.4933 109.185 6.4933C113.889 6.4933 117.369 10.1174 117.369 16.0823C117.369 22.1605 113.85 25.6336 109.185 25.6336C106.967 25.6336 104.94 24.652 103.486 22.8398V25.1808ZM136.988 25.1808H132.131V23.2932C130.869 24.7656 128.689 25.6338 126.279 25.6338C123.335 25.6338 119.855 23.6706 119.855 19.5935C119.855 15.3276 123.335 13.7042 126.279 13.7042C128.727 13.7042 130.907 14.497 132.131 15.9316V13.4776C132.131 11.6278 130.525 10.4196 128.077 10.4196C126.088 10.4196 124.253 11.137 122.685 12.5716L120.849 9.36265C123.105 7.39948 126.012 6.49349 128.918 6.49349C133.125 6.49349 136.987 8.15468 136.987 13.4022L136.988 25.1808ZM128.23 22.3871C129.798 22.3871 131.328 21.8585 132.131 20.8015V18.5363C131.328 17.4793 129.798 16.9507 128.23 16.9507C126.318 16.9507 124.75 17.9323 124.75 19.7067C124.75 21.4055 126.318 22.3871 128.23 22.3871ZM159.13 25.1808V12.3072C159.13 8.75847 157.18 6.4933 153.126 6.4933C150.105 6.4933 147.849 7.92788 146.663 9.32466V6.94649H141.806V25.1808H146.663V12.9114C147.466 11.8166 148.958 10.7594 150.87 10.7594C152.935 10.7594 154.274 11.6278 154.274 14.1572V25.1808H159.13ZM182 25.1808L174.466 15.2142L181.771 6.94649H175.805L168.806 15.0632V0H163.949V25.1808H168.806V20.4995L171.024 18.1589L175.919 25.1808H182Z"/>
</svg>
