<?xml version="1.0" ?>
<!DOCTYPE svg  PUBLIC '-//W3C//DTD SVG 1.1//EN'  'http://www.w3.org/Graphics/SVG/1.1/DTD/svg11.dtd'>

<svg width="203" height="34" viewBox="0 0 203 34" fill="#000000" xmlns="http://www.w3.org/2000/svg">
<path d="M38.3115 29.3519H33.3267V11.7434H51.2589V29.3519H46.2741V15.1615H38.2985V29.3519H38.3115Z"/>
<path d="M58.0563 22.9299C58.0563 19.3565 60.2574 18.6573 61.6557 18.6573C63.0152 18.6573 65.2163 19.3565 65.2163 22.9299C65.2163 25.144 64.284 27.2544 61.6557 27.2544C58.9756 27.2673 58.0563 25.144 58.0563 22.9299ZM53.6801 16.5598V34H58.2764V28.0312C59.8172 29.6885 62.316 29.818 62.9246 29.818C67.3008 29.818 69.9939 27.0213 69.9939 22.9688C69.9939 18.7479 67.3396 16.0807 63.0152 16.0807C61.9276 16.0807 59.8172 16.262 58.0563 18.1006H57.9657L57.9916 16.5598H53.6801Z"/>
<path d="M81.3746 27.8112C79.6785 29.3907 78.0601 29.818 76.2475 29.818C71.3015 29.818 71.1203 26.0891 71.1203 24.5613V16.5598H75.7037V23.9528C75.7037 26.4905 76.5841 27.2544 78.2673 27.2544C81.1675 27.2544 81.3746 24.6649 81.3746 23.7327V16.5598H85.971V29.339H81.3746V27.8112Z"/>
<path d="M92.5483 19.1364H95.0213C96.316 19.1364 97.4425 19.3435 97.4425 20.3923C97.4425 21.5575 95.6946 21.5705 94.9436 21.5705H92.5613V19.1364H92.5483ZM87.952 16.5598V29.339H97.067C100.394 29.339 102.686 28.6786 102.686 26.0632C102.686 24.0564 101.573 23.176 99.035 22.7228V22.6451C100.692 22.425 102.142 21.3892 102.142 19.6543C102.142 16.5598 98.5171 16.5598 97.1058 16.5598H87.952ZM92.5483 23.9658H95.3579C97.5331 23.9658 97.9863 24.6261 97.9863 25.4806C97.9863 26.0374 97.6885 26.7883 95.4227 26.7883H92.5613V23.9658H92.5483Z"/>
<path d="M113.795 24.0693C113.795 26.6329 111.555 27.2673 110.442 27.2673C109.6 27.2673 108.085 26.9954 108.085 25.7784C108.085 24.3412 109.807 24.0693 110.778 23.9398C112.565 23.6938 112.41 23.7586 113.795 23.2666V24.0693ZM108.487 20.69C108.487 18.7997 110.481 18.6573 111.296 18.6573C111.814 18.6573 113.717 18.6832 113.769 20.3404C113.769 20.4699 113.769 20.5605 113.769 20.69C113.679 21.9459 112.474 21.6999 109.095 22.1272C106.312 22.5027 103.385 23.2148 103.385 26.1279C103.385 27.1896 103.839 29.8309 108.733 29.8309C110.61 29.8309 112.656 29.3519 113.86 28.096H113.951L114.339 29.3519H119.168V29.1318C118.288 28.9505 118.236 28.096 118.262 26.7106L118.353 20.8713C118.379 19.3823 118.236 16.0937 111.322 16.0937C109.665 16.0937 104.318 16.249 104.11 20.703H108.487V20.69Z"/>
<path d="M118.871 19.1363V16.5727H133.605V19.1363H128.529V29.3519H123.946V19.1363H118.871Z"/>
<path d="M139.47 21.6999H143.6C144.804 21.6999 147.225 21.8294 147.225 23.9398C147.225 25.5971 145.477 25.9338 143.509 25.9338H139.47V21.6999ZM139.47 15.1615H150.915V11.7434H134.485V29.3519H144.571C149.465 29.3519 152.599 27.6428 152.599 24.0434C152.599 18.4113 146.319 18.2818 144.571 18.2818H139.47V15.1615Z"/>
<path d="M163.889 24.0693C163.889 26.6329 161.649 27.2673 160.535 27.2673C159.694 27.2673 158.179 26.9954 158.179 25.7784C158.179 24.3412 159.901 24.0693 160.859 23.9398C162.646 23.6938 162.491 23.7586 163.876 23.2666V24.0693H163.889ZM158.58 20.69C158.58 18.7997 160.574 18.6573 161.39 18.6573C161.908 18.6573 163.811 18.6832 163.863 20.3404C163.863 20.4699 163.863 20.5605 163.863 20.69C163.772 21.9459 162.568 21.6999 159.176 22.1272C156.405 22.5027 153.466 23.2148 153.466 26.1279C153.466 27.1896 153.919 29.8309 158.813 29.8309C160.691 29.8309 162.737 29.3519 163.941 28.096H164.031L164.42 29.3519H169.249V29.1318C168.382 28.9505 168.317 28.096 168.343 26.7106L168.433 20.8713C168.459 19.3823 168.317 16.0937 161.403 16.0937C159.746 16.0937 154.398 16.249 154.191 20.703H158.58V20.69Z"/>
<path d="M175.011 29.3519H170.427V16.5727H175.011V21.3762H180.539V16.5727H185.123V29.3519H180.539V23.9398H175.011V29.3519Z"/>
<path d="M196.711 16.5598H201.812L195.506 22.5545L202.123 29.3519H196.749L191.804 23.7715H191.713V29.3519H187.129V16.5728H191.713V21.7129H191.804L196.711 16.5598Z"/>
<path d="M11.4973 17.8933H0V29.3906H11.4973V17.8933Z"/>
<path d="M0.0129255 0V14.3069H3.05557C11.0571 14.3069 15.1096 18.3595 15.1096 26.361V29.4037H29.4166V0H0.0129255ZM23.3442 6.07236C23.3442 9.98248 23.3442 19.4082 23.3442 23.3184C22.2566 23.3184 22.0624 23.3184 21.0007 23.3184C19.9908 14.786 14.6306 9.42574 6.09823 8.41584C6.09823 7.35415 6.09823 7.15994 6.09823 6.07236C9.99541 6.07236 19.4341 6.07236 23.3442 6.07236Z"/>
</svg>
