<?xml version="1.0" ?>
<!DOCTYPE svg  PUBLIC '-//W3C//DTD SVG 1.1//EN'  'http://www.w3.org/Graphics/SVG/1.1/DTD/svg11.dtd'>
<svg xmlns="http://www.w3.org/2000/svg" xmlns:xlink="http://www.w3.org/1999/xlink" version="1.1" id="Layer_1" x="0px" y="0px" viewBox="0 0 218.7 105.1" style="enable-background:new 0 0 218.7 105.1;" xml:space="preserve">
   <style type="text/css">
      .st0{fill:#89AF39;}
      .st1{fill:#222221;}
   </style>
   <g>
      <polygon class="st0" points="63.4,84.4 59.5,84.4 59.5,70.6 73.5,70.6 73.5,84.4 69.6,84.4 69.6,73.3 63.4,73.3 63.4,84.4  "/>
      <path class="st0" d="M78.8,79.4c0-2.8,1.7-3.3,2.8-3.3c1.1,0,2.8,0.6,2.8,3.3c0,1.7-0.7,3.4-2.8,3.4C79.5,82.7,78.8,81.1,78.8,79.4   L78.8,79.4z M75.4,74.4L75.4,74.4V88H79v-4.7c1.2,1.3,3.2,1.4,3.6,1.4c3.4,0,5.5-2.2,5.5-5.3c0-3.3-2.1-5.4-5.4-5.4   c-0.8,0-2.5,0.1-3.9,1.6h-0.1l0-1.2H75.4L75.4,74.4z"/>
      <path class="st0" d="M97,83.2c-1.3,1.2-2.6,1.6-4,1.6c-3.9,0-4-2.9-4-4.1v-6.2h3.6v5.8c0,2,0.7,2.6,2,2.6c2.3,0,2.4-2,2.4-2.7v-5.6   h3.6v10H97V83.2L97,83.2z"/>
      <path class="st0" d="M105.7,76.4h1.9c1,0,1.9,0.2,1.9,1c0,0.9-1.4,0.9-2,0.9h-1.9V76.4L105.7,76.4z M102.1,74.4L102.1,74.4v10h7.1   c2.6,0,4.4-0.5,4.4-2.6c0-1.6-0.9-2.3-2.9-2.6v-0.1c1.3-0.2,2.4-1,2.4-2.3c0-2.4-2.8-2.4-3.9-2.4H102.1L102.1,74.4z M105.7,80.2   L105.7,80.2h2.2c1.7,0,2,0.5,2,1.2c0,0.4-0.2,1-2,1h-2.2V80.2L105.7,80.2z"/>
      <path class="st0" d="M122.3,80.2c0,2-1.7,2.5-2.6,2.5c-0.7,0-1.8-0.2-1.8-1.2c0-1.1,1.3-1.3,2.1-1.4c1.4-0.2,1.3-0.1,2.4-0.5V80.2   L122.3,80.2z M118.2,77.6L118.2,77.6c0-1.5,1.6-1.6,2.2-1.6c0.4,0,1.9,0,1.9,1.3c0,0.1,0,0.2,0,0.3c-0.1,1-1,0.8-3.7,1.1   c-2.2,0.3-4.5,0.8-4.5,3.1c0,0.8,0.4,2.9,4.2,2.9c1.5,0,3.1-0.4,4-1.4h0.1l0.3,1h3.8v-0.2c-0.7-0.1-0.7-0.8-0.7-1.9l0.1-4.6   c0-1.2-0.1-3.7-5.5-3.7c-1.3,0-5.5,0.1-5.6,3.6H118.2L118.2,77.6z"/>
      <polygon class="st0" points="126.3,76.4 126.3,74.4 137.8,74.4 137.8,76.4 133.8,76.4 133.8,84.4 130.2,84.4 130.2,76.4    126.3,76.4  "/>
      <polygon points="33.5,84.4 42.5,84.4 42.5,75.4 33.5,75.4 33.5,84.4  "/>
      <path class="st0" d="M33.5,61.5v11.2h2.4c6.2,0,9.4,3.2,9.4,9.4v2.4h11.2V61.5H33.5L33.5,61.5z M51.7,66.2L51.7,66.2   c0,3,0,10.4,0,13.5c-0.9,0-1,0-1.8,0c-0.8-6.7-5-10.8-11.6-11.6c0-0.8,0-1,0-1.8C41.3,66.2,48.7,66.2,51.7,66.2L51.7,66.2z"/>
   </g>
</svg>