<?xml version="1.0" ?>
<!DOCTYPE svg  PUBLIC '-//W3C//DTD SVG 1.1//EN'  'http://www.w3.org/Graphics/SVG/1.1/DTD/svg11.dtd'>
<svg viewBox="0 0 120 28" class="BlackLogo__IconBase-sc-kte3yd-0 bKKsdd">
    <path d="M77.8724 10.196C75.849 8.35244 73.4065 7.45142 70.5824 7.45142C67.7971 7.45142 65.3546 8.35392 63.3297 10.196C61.3063 11.9995 60.278 14.5099 60.278 17.7257C60.278 20.9415 61.3063 23.4504 63.3297 25.294C65.3531 27.0975 67.7971 28 70.5824 28C73.4065 28 75.849 27.0975 77.8724 25.294C79.9347 23.4504 80.963 20.9415 80.963 17.7257C80.963 14.5099 79.9333 11.9995 77.8724 10.196ZM66.7674 21.8425C65.7002 20.7844 65.163 19.4107 65.163 17.7257C65.163 16.0393 65.6959 14.667 66.7674 13.6474C67.8345 12.5893 69.0961 12.0795 70.5809 12.0795C72.0672 12.0795 73.3662 12.5893 74.4348 13.6474C75.5394 14.667 76.0766 16.0393 76.0766 17.7257C76.0766 19.4122 75.5437 20.7844 74.4348 21.8425C73.3676 22.8621 72.0686 23.3719 70.5809 23.3719C69.0961 23.3719 67.8374 22.8621 66.7674 21.8425Z" fill="#21262D"></path>
    <path d="M88.1796 27.4497V0.540585H83.3709V27.4497H88.1796Z" fill="#21262D"></path>
    <path d="M103.701 7.99935V18.736C103.701 21.3235 102.341 23.0381 99.7497 23.0381C97.1156 23.0381 95.7907 21.325 95.7907 18.736V7.99935H90.9733V19.56C90.9733 24.0384 93.7212 27.9981 99.7497 27.9981H99.7871C105.778 27.9981 108.522 23.951 108.522 19.56V7.99935H103.701Z" fill="#21262D"></path>
    <path d="M55.159 7.99935L50.3503 21.1753L45.5417 7.99935H40.4277L48.1008 27.4498H52.6056L60.2774 7.99935H55.159Z" fill="#21262D"></path>
    <path d="M40.4524 17.1759C40.4524 14.3528 39.5754 12.0395 37.8573 10.196C36.1392 8.35244 33.9285 7.45142 31.2182 7.45142C28.4329 7.45142 26.0653 8.43246 24.1182 10.3531C22.2085 12.2751 21.2566 14.7055 21.2566 17.7257C21.2566 20.7459 22.21 23.2163 24.0807 25.1369C25.9904 27.059 28.2802 28 30.9892 28C35.1512 28 38.0891 26.1179 39.8793 22.3138L36.2933 20.1961C35.1123 22.588 33.3928 23.7646 31.0655 23.7646C28.2039 23.7646 26.1805 21.8826 25.8752 18.9024H40.451V17.1759H40.4524ZM31.0626 11.2155C33.7716 11.2155 35.5674 12.7834 36.024 15.2938H25.8723C26.5996 12.9805 28.5812 11.2155 31.0626 11.2155Z" fill="#21262D"></path>
    <path d="M21.2567 27.45L14.8048 15.8434C18.8862 14.3141 20.9097 11.648 20.9097 7.76537C20.914 3.02019 17.2473 0 11.4089 0H0V27.45H5.03767V16.3132H9.3135L15.4947 27.45H21.2567ZM11.4089 4.54807C14.3857 4.54807 15.8749 5.76326 15.8749 8.15512C15.8749 10.547 14.3843 11.7622 11.4089 11.7622H5.03767V4.54807H11.4089Z" fill="#21262D"></path>
    <path d="M116.673 27.9983C113.578 27.9983 111.068 25.4183 111.068 22.2336V2.74457H115.877V8.00694H120V12.0067H115.877V21.9164C115.877 22.8501 116.613 23.6058 117.523 23.6058H120V27.9983H116.673Z" fill="#21262D"></path>
</svg>