<?xml version="1.0" ?>
<!DOCTYPE svg  PUBLIC '-//W3C//DTD SVG 1.1//EN'  'http://www.w3.org/Graphics/SVG/1.1/DTD/svg11.dtd'>

<svg width="113" height="25" viewBox="0 0 113 25" fill="#000000" xmlns="http://www.w3.org/2000/svg">
    <path d="M73.3301 9.10361C71.4247 7.4575 69.1247 6.65305 66.4653 6.65305C63.8425 6.65305 61.5425 7.45889 59.6357 9.10361C57.7303 10.7138 56.762 12.9553 56.762 15.8266C56.762 18.6978 57.7303 20.938 59.6357 22.5839C61.541 24.1943 63.8425 25 66.4652 25C69.1247 25 71.4247 24.1943 73.3301 22.5839C75.2721 20.938 76.2404 18.6978 76.2404 15.8265C76.2404 12.9552 75.2708 10.7139 73.3301 9.10361ZM62.8728 19.5023C61.8679 18.5576 61.362 17.331 61.362 15.8266C61.362 14.3208 61.8639 13.0956 62.8728 12.1852C63.8777 11.2405 65.0657 10.7852 66.4639 10.7852C67.8634 10.7852 69.0867 11.2405 70.0931 12.1852C71.1332 13.0956 71.6389 14.3208 71.6389 15.8266C71.6389 17.3323 71.1372 18.5576 70.093 19.5023C69.0881 20.4125 67.8648 20.8678 66.4639 20.8678C65.0657 20.8678 63.8804 20.4126 62.8728 19.5023ZM83.0361 24.5086V0.482685H78.508V24.5086H83.0361ZM97.6527 7.14231V16.7286C97.6527 19.0388 96.3711 20.5697 93.9312 20.5697C91.4508 20.5697 90.2031 19.0401 90.2031 16.7286V7.14231H85.6668V17.4643C85.6668 21.4629 88.2543 24.9983 93.9312 24.9983H93.966C99.6085 24.9983 102.192 21.3848 102.192 17.4643V7.14231H97.6527ZM51.9416 7.14231L47.4134 18.9065L42.8851 7.14231H38.0695L45.2951 24.5088H49.5371L56.7613 7.14231H51.9416ZM38.0928 15.3356C38.0928 12.815 37.267 10.7495 35.6492 9.10361C34.0311 7.4575 31.9494 6.65305 29.3971 6.65305C26.7744 6.65305 24.5448 7.52898 22.7113 9.2438C20.9131 10.96 20.0167 13.1299 20.0167 15.8266C20.0167 18.5231 20.9144 20.7289 22.6761 22.4437C24.4744 24.1598 26.6306 25 29.1815 25C33.1008 25 35.8674 23.3196 37.553 19.9231L34.1762 18.0322C33.0642 20.1679 31.445 21.2183 29.2534 21.2183C26.5588 21.2183 24.6534 19.5381 24.3658 16.8771H38.0916V15.3356H38.0928ZM29.2507 10.0139C31.8017 10.0139 33.4927 11.4138 33.9226 13.6553H24.3632C25.0479 11.5898 26.9141 10.0139 29.2507 10.0139ZM20.0168 24.5089L13.9412 14.1459C17.7846 12.7805 19.6899 10.4001 19.6899 6.93333C19.6941 2.69657 16.2413 0 10.7435 0H0V24.5089H4.74385V14.5654H8.77024L14.5908 24.5089H20.0168ZM10.7435 4.06074C13.5467 4.06074 14.949 5.14574 14.949 7.28139C14.949 9.41694 13.5454 10.5019 10.7435 10.5019H4.74385V4.06074H10.7435ZM109.868 24.9985C106.954 24.9985 104.59 22.6948 104.59 19.8513V2.45065H109.117V7.14907H113V10.7203H109.117V19.5682C109.117 20.4018 109.811 21.0766 110.667 21.0766H113V24.9985H109.868Z"/>
</svg>
